<?xml version="1.0" standalone="no"?>
<!DOCTYPE svg PUBLIC "-//W3C//DTD SVG 1.1//EN" "http://www.w3.org/Graphics/SVG/1.1/DTD/svg11.dtd" >
<svg xmlns="http://www.w3.org/2000/svg">
<metadata>
This is a custom SVG webfont generated by Font Squirrel.
Copyright   : The digitally encoded machine readable software for producing the Typefaces licensed to you is copyrighted c 1991 2001 Linotype Library GmbH or its affiliated LinotypeHell companies  All rights reserved  This software is now the property of Heidelberger Druckmaschinen AG and its licensors and may not be reproduced used displayed modified disclosed or transferred without the express written approval of Heidelberger Druckmaschinen AG
Designer    : Adrian Frutiger
Foundry URL : httpwwwlinotypelibrarycom
</metadata>
<defs>
<font id="webfonttAcXWChW" horiz-adv-x="983" >
<font-face units-per-em="2048" ascent="1638" descent="-410" />
<missing-glyph horiz-adv-x="491" />
<glyph unicode=" "  horiz-adv-x="491" />
<glyph unicode="&#x09;" horiz-adv-x="491" />
<glyph unicode="&#xa0;" horiz-adv-x="491" />
<glyph unicode="!" horiz-adv-x="720" d="M258 1430h205l-29 -1049h-147zM262 0v229h197v-229h-197z" />
<glyph unicode="&#x22;" horiz-adv-x="1024" d="M285 1061v475h147v-475h-147zM592 1061v475h147v-475h-147z" />
<glyph unicode="#" d="M8 446v111h217l43 315h-202v111h217l61 447h123l-61 -447h243l62 447h123l-62 -447h203v-111h-217l-43 -315h203v-111h-218l-63 -446h-123l64 446h-244l-64 -446h-123l64 446h-203zM348 557h244l43 315h-244z" />
<glyph unicode="$" d="M129 1085q0 78 24.5 139.5t67.5 105.5t102.5 72t129.5 38v168h82v-164q70 -2 136 -14.5t113 -32.5v-174q-51 31 -113.5 48t-125.5 17h-10v-465q25 -18 53 -35q143 -86 204.5 -180t61.5 -217q0 -150 -80 -259t-239 -136v-189h-82v181q-4 -2 -13 -2h-12q-78 0 -154.5 16 t-134.5 45v186q61 -37 135 -64.5t138 -27.5h20q10 0 21 2v510l-60 37q-78 47 -128 90t-80.5 88t-43 97t-12.5 120zM317 1075q0 -53 26 -97t110 -101v395q-66 -23 -101 -75t-35 -122zM535 168q63 29 97 82t34 117q0 66 -24 117t-107 112v-428z" />
<glyph unicode="%" horiz-adv-x="1667" d="M119 1049q0 205 77.5 300t206.5 95t207 -95.5t78 -299.5q0 -205 -78 -300.5t-207 -95.5t-206.5 95.5t-77.5 300.5zM266 1049q0 -143 33 -208t104 -65q72 0 105 64.5t33 208.5q0 143 -33 207.5t-105 64.5t-104.5 -64.5t-32.5 -207.5zM449 -68l641 1565h131l-641 -1565 h-131zM979 381q0 205 78 300t207 95t206.5 -95t77.5 -300t-77.5 -300t-206.5 -95t-207 95t-78 300zM1126 381q0 -143 33 -207.5t105 -64.5t104.5 64.5t32.5 207.5t-33 207.5t-104 64.5q-72 0 -105 -64.5t-33 -207.5z" />
<glyph unicode="&#x26;" horiz-adv-x="1251" d="M115 381q0 152 70.5 254t211.5 180q-25 33 -50 72t-46.5 81t-35 86t-13.5 87q0 141 92 222t238 81q74 0 133 -22.5t101 -62.5t64.5 -94.5t22.5 -117.5q0 -96 -62.5 -190.5t-209.5 -178.5l264 -366q41 88 60.5 184t25.5 207h172q-10 -135 -49 -272.5t-111 -247.5l221 -283 h-213l-112 158q-53 -86 -149.5 -129t-204.5 -43q-102 0 -181.5 31.5t-132.5 85t-79.5 126t-26.5 152.5zM295 395q0 -55 18.5 -102t52 -83t82 -56.5t109.5 -20.5q72 0 140.5 42t103.5 95l-316 426q-80 -53 -135 -128t-55 -173zM416 1151q0 -29 12 -62.5t31.5 -69.5t42 -68.5 t45.5 -59.5q106 66 149 125t43 133q0 59 -38.5 107.5t-116.5 48.5q-72 0 -120 -42t-48 -112z" />
<glyph unicode="'" horiz-adv-x="491" d="M172 1061v475h147v-475h-147z" />
<glyph unicode="(" horiz-adv-x="569" d="M121 631q0 104 20.5 220t57.5 233.5t89 235.5t118 228l137 -12q-74 -141 -122 -259t-77 -224.5t-40 -209t-11 -212.5q0 -111 11 -213.5t40 -209t77 -224t122 -258.5l-137 -13q-66 111 -118 227.5t-89 235.5t-57.5 235t-20.5 220z" />
<glyph unicode=")" horiz-adv-x="569" d="M27 -274q74 141 122 258.5t76.5 224t39.5 209t11 213.5t-11 213t-39.5 208.5t-77 224.5t-121.5 259l137 12q63 -111 116.5 -228.5t90.5 -235t57.5 -233.5t20.5 -220t-20.5 -220t-57.5 -235t-90.5 -235.5t-116.5 -227.5z" />
<glyph unicode="*" horiz-adv-x="1024" d="M164 1227l47 147l246 -106l-23 268h156l-27 -266l248 104l49 -147l-262 -60l176 -202l-127 -91l-135 230l-139 -230l-125 91l178 202z" />
<glyph unicode="+" horiz-adv-x="1228" d="M96 449v139h449v448h139v-448h449v-139h-449v-449h-139v449h-449z" />
<glyph unicode="," horiz-adv-x="491" d="M53 -246l103 475h188l-135 -475h-156z" />
<glyph unicode="-" horiz-adv-x="606" d="M82 502v147h442v-147h-442z" />
<glyph unicode="." horiz-adv-x="491" d="M147 0v229h197v-229h-197z" />
<glyph unicode="/" horiz-adv-x="530" d="M0 -14l379 1458h151l-378 -1458h-152z" />
<glyph unicode="0" d="M76 715q0 360 106.5 544.5t309.5 184.5t309 -184.5t106 -544.5t-106.5 -544.5t-308.5 -184.5q-203 0 -309.5 184.5t-106.5 544.5zM256 715q0 -303 56.5 -442.5t179.5 -139.5t179 139.5t56 442.5t-56.5 442t-178.5 139q-123 0 -179.5 -139t-56.5 -442z" />
<glyph unicode="1" d="M137 1151l293 279h164v-1430h-180v1223l-183 -205z" />
<glyph unicode="2" d="M76 0v158q272 311 407 529t135 362q0 49 -13 92t-38.5 75.5t-65.5 52t-93 19.5q-61 0 -137 -30.5t-138 -79.5l-22 180q92 45 181 65.5t154 20.5q82 0 150 -29t114 -78t71.5 -114.5t25.5 -139.5q0 -94 -40 -206.5t-110.5 -234.5t-168 -246t-214.5 -240h553v-156h-751z" />
<glyph unicode="3" d="M76 39l16 176q72 -39 142.5 -60.5t130.5 -21.5q57 0 110 20.5t94 57.5t64.5 90t23.5 119q0 111 -73.5 177.5t-204.5 66.5h-133v147h73q168 0 251 70.5t83 181.5q0 106 -70.5 169.5t-183.5 63.5q-57 0 -128.5 -21.5t-133.5 -57.5l-16 167q70 33 149.5 46.5t163.5 13.5 t157 -21.5t127 -65.5t85 -110.5t31 -156.5q0 -147 -75 -230.5t-190 -105.5v-4q66 -8 117 -39t87 -78t54.5 -107.5t18.5 -128.5q0 -84 -29 -158.5t-87 -131t-145 -89t-204 -32.5q-78 0 -162 15t-143 38z" />
<glyph unicode="4" d="M47 324v172l514 934h219v-959h156v-147h-156v-324h-172v324h-561zM199 471h409v778h-4z" />
<glyph unicode="5" d="M125 43l8 166q47 -29 116.5 -52.5t131.5 -23.5q68 0 123 24.5t94 67.5t59.5 102.5t20.5 129.5q0 147 -79 224t-224 77q-53 0 -107.5 -12.5t-128.5 -34.5v719h658v-148h-486v-399q35 10 78 16t84 6q80 0 150.5 -26.5t125 -80t86 -133t31.5 -186.5q0 -111 -28.5 -202 t-87 -155.5t-144.5 -100t-200 -35.5q-70 0 -144 14t-137 43z" />
<glyph unicode="6" d="M76 657q0 786 530 787q66 0 128.5 -11.5t109.5 -29.5l-8 -168q-47 29 -103.5 45t-116.5 16q-90 0 -158.5 -41t-114.5 -115.5t-70.5 -179t-24.5 -231.5h4q37 84 110.5 130t172.5 46q90 0 159.5 -38t116.5 -100t71.5 -143t24.5 -165q0 -119 -31.5 -207t-87 -147.5t-131 -89 t-161.5 -29.5q-115 0 -195 47t-130 134t-72.5 210.5t-22.5 279.5zM274 446q0 -59 14.5 -114.5t42 -100.5t70.5 -71.5t101 -26.5q57 0 99 26.5t69.5 71.5t42 100.5t14.5 114.5q0 57 -14.5 112.5t-42 99.5t-69.5 72t-99 28t-100.5 -28t-71 -72t-42 -99.5t-14.5 -112.5z" />
<glyph unicode="7" d="M115 1274v156h753v-170l-442 -1260h-199l469 1274h-581z" />
<glyph unicode="8" d="M76 377q0 137 72.5 226t195.5 138q-66 31 -111 73t-73.5 89t-42 96.5t-13.5 96.5q0 66 26 128t75 111t120.5 79t166.5 30q94 0 165.5 -30t120.5 -79t75 -111.5t26 -127.5q0 -47 -13.5 -96.5t-41 -96.5t-73.5 -89t-110 -73q123 -49 194.5 -138t71.5 -226 q0 -84 -28.5 -154.5t-83 -124t-131 -83t-172.5 -29.5t-174 29.5t-131.5 83t-82 124t-28.5 154.5zM256 397q0 -53 16.5 -101t49 -84t77.5 -57.5t105 -21.5q98 0 160.5 70.5t62.5 181.5q0 98 -56.5 165.5t-191.5 129.5q-68 -37 -110.5 -71t-68.5 -67.5t-35 -69.5t-9 -75z M285 1083q0 -72 48 -144.5t175 -127.5q86 59 138 132t52 153q0 39 -15 75.5t-43 64.5t-65.5 44t-82.5 16q-43 0 -81 -16t-66 -45t-44 -68t-16 -84z" />
<glyph unicode="9" d="M76 971q0 119 31.5 207t87 147t131 89t161.5 30q115 0 195 -47t130 -134t72.5 -211t22.5 -280q0 -786 -530 -786q-66 0 -128.5 11t-109.5 30l8 168q47 -29 103.5 -45.5t116.5 -16.5q88 0 157.5 41t115.5 116t70.5 179t24.5 231h-4q-37 -84 -110.5 -130t-171.5 -46 q-90 0 -160 38t-117 100.5t-71.5 143.5t-24.5 165zM256 983q0 -57 14.5 -112.5t42 -99.5t69.5 -71.5t99 -27.5t100.5 27.5t71 71.5t42 99.5t14.5 112.5t-14.5 113.5t-42 101.5t-70.5 71.5t-101 26.5q-57 0 -99 -26.5t-69.5 -71.5t-42 -101.5t-14.5 -113.5z" />
<glyph unicode=":" horiz-adv-x="491" d="M147 0v229h197v-229h-197zM147 815v229h197v-229h-197z" />
<glyph unicode=";" horiz-adv-x="491" d="M53 -246l103 475h188l-135 -475h-156zM147 815v229h197v-229h-197z" />
<glyph unicode="&#x3c;" horiz-adv-x="1228" d="M96 453v131l1037 467v-131l-881 -402l881 -401v-131z" />
<glyph unicode="=" horiz-adv-x="1228" d="M96 242v139h1037v-139h-1037zM96 655v140h1037v-140h-1037z" />
<glyph unicode="&#x3e;" horiz-adv-x="1228" d="M96 -14v131l881 401l-881 402v131l1037 -467v-131z" />
<glyph unicode="?" horiz-adv-x="909" d="M147 1386q59 27 130 42.5t135 15.5q172 0 273 -90t101 -262q0 -72 -25.5 -153t-78.5 -159l-119 -174q-20 -29 -32.5 -50t-19.5 -46t-9 -57.5t-2 -81.5h-156q0 70 4 119t18.5 92t42 86t74.5 102q68 84 95.5 147.5t27.5 139.5q0 104 -61.5 167.5t-155.5 63.5 q-53 0 -118.5 -22.5t-114.5 -46.5zM324 0v229h196v-229h-196z" />
<glyph unicode="@" horiz-adv-x="1638" d="M90 715q0 152 58.5 285t161 231t244.5 155.5t310 57.5q143 0 268 -48t217.5 -131t145.5 -193.5t53 -237.5q0 -129 -48 -231.5t-117.5 -174.5t-150.5 -109.5t-145 -37.5q-135 0 -161 122h-4q-59 -63 -123 -92.5t-144 -29.5q-66 0 -113.5 25.5t-79.5 68.5t-48.5 97 t-16.5 112q0 98 34 195.5t95.5 176t148.5 126.5t193 48q72 0 131.5 -40.5t92.5 -114.5l41 123h131l-174 -551q-10 -25 -15.5 -50.5t-5.5 -47.5q0 -18 10.5 -32t34.5 -14q55 0 108.5 35t95.5 93.5t66.5 137.5t24.5 165q0 111 -40 198.5t-111.5 150t-172 96.5t-221.5 34 q-141 0 -259 -45t-200.5 -125t-129 -189.5t-46.5 -238.5t45 -238.5t125 -189.5t187.5 -125t232.5 -45q203 0 331 56t212 159h127q-98 -164 -272.5 -255t-397.5 -91q-152 0 -285 57t-231 155.5t-155.5 231.5t-57.5 285zM553 596q0 -92 41 -142.5t104 -50.5q74 0 135.5 43 t105.5 106.5t68.5 138.5t24.5 136q0 86 -44 133.5t-116 47.5q-49 0 -105 -31t-103.5 -85t-79 -130t-31.5 -166z" />
<glyph unicode="A" horiz-adv-x="1175" d="M16 0l480 1430h196l467 -1430h-188l-115 373h-545l-114 -373h-181zM360 528h449l-219 713h-4z" />
<glyph unicode="B" horiz-adv-x="1062" d="M158 0v1430h362q104 0 179 -27t123 -75t72 -114.5t24 -146.5q0 -117 -63.5 -202t-172.5 -115v-5q117 -16 191.5 -109t74.5 -245q0 -74 -25.5 -144.5t-81 -125.5t-139.5 -88t-200 -33h-344zM338 147h154q72 0 124 20.5t85.5 56.5t50 82t16.5 97q0 111 -62.5 186t-193.5 75 h-174v-517zM338 811h106q152 0 222.5 64.5t70.5 181.5q0 92 -60.5 158.5t-201.5 66.5h-137v-471z" />
<glyph unicode="C" horiz-adv-x="1099" d="M98 717q0 168 46 302t130 228t201 145.5t256 51.5q78 0 149.5 -13.5t120.5 -37.5v-176q-113 72 -268 71q-88 0 -169 -34.5t-142.5 -102.5t-98 -167t-36.5 -230q0 -139 27.5 -252t85 -193t143.5 -124t202 -44q70 0 135.5 17.5t120.5 50.5v-180q-66 -20 -131 -31.5 t-129 -11.5q-170 0 -291.5 59t-199.5 160.5t-115 234t-37 277.5z" />
<glyph unicode="D" horiz-adv-x="1175" d="M137 0v1430h312q143 0 231 -30t149 -73q47 -33 94.5 -84t85.5 -123.5t61.5 -167t23.5 -215.5q0 -156 -39 -290t-126 -233t-227.5 -156.5t-341.5 -57.5h-223zM317 156h109q238 0 358.5 152.5t120.5 428.5q0 113 -25.5 210t-82 170t-148.5 115t-223 42h-109v-1118z" />
<glyph unicode="E" horiz-adv-x="948" d="M158 0v1430h665v-156h-485v-455h463v-155h-463v-508h512v-156h-692z" />
<glyph unicode="F" horiz-adv-x="872" d="M158 0v1430h639v-156h-459v-455h436v-155h-436v-664h-180z" />
<glyph unicode="G" horiz-adv-x="1253" d="M98 717q0 168 46 302t130 228t201 145.5t256 51.5q92 0 177 -14.5t159 -49.5v-180q-82 41 -169 64.5t-165 23.5q-88 0 -169 -34.5t-142.5 -102.5t-98 -167t-36.5 -230q0 -139 27.5 -252t85 -193t143.5 -124t202 -44q43 0 93.5 10.5t85.5 28.5v451h-240v155h412v-727 q-31 -12 -73 -24t-88 -23.5t-96.5 -18.5t-97.5 -7q-170 0 -291.5 59t-199.5 160.5t-115 234t-37 277.5z" />
<glyph unicode="H" horiz-adv-x="1175" d="M158 0v1430h180v-611h500v611h180v-1430h-180v664h-500v-664h-180z" />
<glyph unicode="I" horiz-adv-x="495" d="M158 0v1430h180v-1430h-180z" />
<glyph unicode="J" horiz-adv-x="645" d="M47 0v178l48 -13q26 -7 52 -7q180 0 181 227v1045h180v-1055q0 -86 -18.5 -157t-56.5 -123t-97.5 -80.5t-138.5 -28.5q-35 0 -75 5z" />
<glyph unicode="K" horiz-adv-x="1062" d="M137 0v1430h180v-621h5l473 621h215l-537 -676l582 -754h-234l-499 692h-5v-692h-180z" />
<glyph unicode="L" horiz-adv-x="833" d="M158 0v1430h180v-1274h469v-156h-649z" />
<glyph unicode="M" horiz-adv-x="1593" d="M158 0v1430h278l359 -1137h4l366 1137h271v-1430h-172v1233h-4l-406 -1233h-131l-389 1233h-4v-1233h-172z" />
<glyph unicode="N" horiz-adv-x="1253" d="M158 0v1430h223l539 -1180h4v1180h172v-1430h-224l-538 1171h-4v-1171h-172z" />
<glyph unicode="O" horiz-adv-x="1253" d="M98 700q0 371 141.5 557.5t395.5 186.5q119 0 215 -49t163.5 -142.5t104.5 -225.5t37 -298q0 -371 -141.5 -557t-395.5 -186q-119 0 -215 49t-163.5 142t-104.5 225t-37 298zM287 700q0 -109 17.5 -211t57 -181t103 -127t153.5 -48q70 0 133.5 31t111.5 101.5t76 184 t28 279.5q0 109 -17.5 211t-57.5 181t-103.5 127t-153.5 48q-72 0 -134.5 -30.5t-110.5 -101t-75.5 -184.5t-27.5 -280z" />
<glyph unicode="P" horiz-adv-x="985" d="M158 0v1430h344q109 0 180.5 -29t128.5 -82q53 -53 83 -127t30 -168q0 -211 -118 -318.5t-347 -107.5h-121v-598h-180zM338 745h98q164 0 231.5 71t67.5 192q0 147 -77.5 210.5t-217.5 63.5h-102v-537z" />
<glyph unicode="Q" horiz-adv-x="1253" d="M98 700q0 371 141.5 557.5t395.5 186.5q119 0 215 -49t163.5 -142.5t104.5 -225.5t37 -298q0 -274 -78 -447t-225 -245l274 -303h-221l-215 260l-16 -4q-8 -2 -19 -2q-10 0 -18 -1t-19 -1q-119 0 -215 49t-163.5 142t-104.5 225t-37 298zM287 700q0 -109 17.5 -211 t57 -181t103 -127t153.5 -48q70 0 133.5 31t111.5 101.5t76 184t28 279.5q0 109 -17.5 211t-57.5 181t-103.5 127t-153.5 48q-72 0 -134.5 -30.5t-110.5 -101t-75.5 -184.5t-27.5 -280z" />
<glyph unicode="R" horiz-adv-x="1062" d="M158 0v1430h366q115 0 183.5 -26t117.5 -73q55 -53 81 -123.5t26 -148.5q0 -57 -14.5 -111.5t-48 -99.5t-87 -80t-133.5 -51v-4q66 -12 99.5 -45t56.5 -95l201 -573h-195l-164 483q-31 88 -79 126t-148 38h-82v-647h-180zM338 795h139q72 0 123 21.5t83 57t46 80.5t14 93 q0 121 -71.5 178t-190.5 57h-143v-487z" />
<glyph unicode="S" horiz-adv-x="909" d="M92 1085q0 88 32 156t86 113t126 67.5t153 22.5q72 0 141.5 -13.5t117.5 -33.5v-174q-51 31 -115 48t-129 17q-102 0 -162.5 -60.5t-60.5 -152.5q0 -35 9 -64.5t34.5 -60t72.5 -64.5t125 -79q82 -47 139.5 -95t91 -99.5t49 -105.5t15.5 -116q0 -86 -26.5 -159.5t-79 -128 t-130 -86t-180.5 -31.5q-86 0 -163.5 16t-135.5 45v186q61 -37 135 -64.5t138 -27.5q61 0 108 18.5t79 50.5t49.5 73t17.5 84q0 41 -7.5 75.5t-31 67.5t-67.5 68.5t-115 78.5q-96 57 -158 106.5t-96.5 97.5t-48 101t-13.5 123z" />
<glyph unicode="T" horiz-adv-x="909" d="M37 1274v156h835v-156h-327v-1274h-180v1274h-328z" />
<glyph unicode="U" horiz-adv-x="1212" d="M158 526v904h180v-930q0 -168 69.5 -267.5t198.5 -99.5t198.5 99.5t69.5 267.5v930h181v-904q0 -53 -2 -95t-8.5 -80t-17.5 -72.5t-30 -71.5q-23 -45 -57.5 -85t-82.5 -71t-110.5 -48t-140.5 -17t-140.5 17t-110.5 48t-82.5 71t-57.5 85q-18 37 -29.5 71.5t-17.5 72.5 t-8 80t-2 95z" />
<glyph unicode="V" horiz-adv-x="1099" d="M18 1430h197l332 -1166h4l350 1166h180l-448 -1430h-180z" />
<glyph unicode="W" horiz-adv-x="1630" d="M18 1430h189l233 -1160h4l256 1160h230l256 -1160h4l250 1160h172l-312 -1430h-213l-270 1225h-4l-270 -1225h-213z" />
<glyph unicode="X" horiz-adv-x="1099" d="M12 0l434 756l-383 674h213l299 -527l287 527h199l-399 -676l425 -754h-213l-335 596l-322 -596h-205z" />
<glyph unicode="Y" horiz-adv-x="1060" d="M12 1430h205l315 -633l318 633h199l-428 -830v-600h-181v600z" />
<glyph unicode="Z" horiz-adv-x="948" d="M70 0v170l581 1104h-563v156h778v-156l-600 -1118h613v-156h-809z" />
<glyph unicode="[" horiz-adv-x="569" d="M184 -287v1835h312v-123h-164v-1589h164v-123h-312z" />
<glyph unicode="\" horiz-adv-x="530" d="M0 1444h152l378 -1458h-151z" />
<glyph unicode="]" horiz-adv-x="569" d="M74 -164h164v1589h-164v123h311v-1835h-311v123z" />
<glyph unicode="^" horiz-adv-x="1228" d="M96 543l453 887h131l453 -887h-148l-371 747l-370 -747h-148z" />
<glyph unicode="_" horiz-adv-x="1024" d="M0 -154h1024v-102h-1024v102z" />
<glyph unicode="`" horiz-adv-x="417" d="M-29 1485h203l137 -297h-131z" />
<glyph unicode="a" horiz-adv-x="948" d="M74 287q0 76 26.5 140.5t85 111.5t151.5 73.5t228 26.5h101v47q0 59 -7.5 96t-31.5 72q-27 35 -74 50.5t-100 15.5q-80 0 -152 -30t-117 -79l-18 162q66 41 141.5 63.5t153.5 22.5q57 0 103 -11.5t81 -26.5t58.5 -31.5t35.5 -28.5q35 -35 62.5 -90.5t27.5 -165.5v-545 q0 -47 2.5 -89t6.5 -71h-156l-10 141h-4q-35 -59 -104.5 -107t-188.5 -48q-129 0 -215 74.5t-86 226.5zM246 299q0 -84 43 -133t133 -49q55 0 100 21.5t77 57t49.5 84t17.5 101.5v131q-23 4 -56 4h-65q-152 0 -225.5 -63.5t-73.5 -153.5z" />
<glyph unicode="b" horiz-adv-x="985" d="M100 0q2 47 5.5 96t3.5 97v1343h172v-635h4q53 84 114.5 121t151.5 37q162 0 261 -133t99 -404q0 -270 -99 -403t-261 -133q-57 0 -100 14t-77 38.5t-57.5 54.5t-40.5 61h-4l-6 -154h-166zM281 522q0 -199 55 -298t174 -99t174 99.5t55 297.5q0 199 -55 298.5t-174 99.5 t-174 -99.5t-55 -298.5z" />
<glyph unicode="c" horiz-adv-x="796" d="M74 512q0 127 31.5 228.5t92 172t147.5 108.5t196 38q53 0 109.5 -10.5t97.5 -30.5l-9 -156q-45 25 -92 37t-106 12q-127 0 -207 -94t-80 -305q0 -182 78 -280.5t205 -98.5q61 0 113 16.5t98 38.5l8 -157q-39 -16 -100.5 -30.5t-118.5 -14.5q-117 0 -204 41t-144.5 111.5 t-86 166.5t-28.5 207z" />
<glyph unicode="d" horiz-adv-x="985" d="M74 522q0 270 99 403.5t261 133.5q90 0 151.5 -37t114.5 -121h5v635h172v-1343q0 -47 3 -96.5t5 -96.5h-166l-6 154h-4q-16 -31 -40 -61t-57.5 -54.5t-76.5 -38.5t-101 -14q-162 0 -261 133t-99 403zM246 522q0 -199 55 -298t174 -99t174.5 99.5t55.5 297.5 q0 199 -55.5 298.5t-174.5 99.5t-174 -99.5t-55 -298.5z" />
<glyph unicode="e" horiz-adv-x="909" d="M74 522q0 123 26.5 222.5t77.5 169t126 107.5t173 38q178 0 272.5 -132t94.5 -364v-92h-590q0 -182 70.5 -268t214.5 -86q66 0 130 26.5t109 59.5l8 -156q-61 -29 -138 -45t-154 -16q-104 0 -182.5 37.5t-131.5 107.5t-79.5 169t-26.5 222zM254 602h418q0 326 -205 326 q-41 0 -79 -16.5t-67.5 -55.5t-47 -100.5t-19.5 -153.5z" />
<glyph unicode="f" horiz-adv-x="569" d="M33 905v139h166v234q0 129 61.5 206t198.5 77q74 0 135 -17v-147q-16 12 -42 18t-56 6q-72 0 -98.5 -40t-26.5 -117v-220h188v-139h-188v-905h-172v905h-166z" />
<glyph unicode="g" horiz-adv-x="985" d="M74 522q0 272 101 404.5t278 132.5q78 0 145.5 -45t110.5 -121h4l6 151h166q-2 -47 -5 -95t-3 -95v-899q0 -109 -38 -186.5t-99.5 -127t-142.5 -73t-167 -23.5q-33 0 -74 5.5t-83 14.5t-80.5 20.5t-67.5 23.5l8 174q55 -37 135 -63.5t152 -26.5q158 0 225.5 85t67.5 220 v164h-4q-100 -176 -275 -176q-162 0 -261 133t-99 403zM246 522q0 -199 55 -298t174 -99t174.5 99.5t55.5 297.5q0 199 -55.5 298.5t-174.5 99.5t-174 -99.5t-55 -298.5z" />
<glyph unicode="h" horiz-adv-x="987" d="M125 0v1536h172v-635h4q35 66 99.5 112t156.5 46q137 0 221 -81t84 -253v-725h-172v674q0 125 -44 181t-128 56q-102 0 -161.5 -70.5t-59.5 -211.5v-629h-172z" />
<glyph unicode="i" horiz-adv-x="454" d="M133 1270v205h189v-205h-189zM141 0v1044h172v-1044h-172z" />
<glyph unicode="j" horiz-adv-x="454" d="M-25 -297q16 -4 36 -7t40 -3q53 0 71.5 28.5t18.5 108.5v1214h172v-1237q0 -133 -49 -197.5t-190 -64.5q-55 0 -99 19v139zM133 1270v205h189v-205h-189z" />
<glyph unicode="k" horiz-adv-x="909" d="M125 0v1536h172v-911l358 419h201l-410 -466l447 -578h-213l-379 526h-4v-526h-172z" />
<glyph unicode="l" horiz-adv-x="454" d="M141 0v1536h172v-1536h-172z" />
<glyph unicode="m" horiz-adv-x="1478" d="M117 1044h166l6 -155h4q41 90 106.5 130t151.5 40q164 0 246 -164q41 78 102.5 121t151.5 43q135 0 219 -81t84 -253v-725h-172v717q0 100 -41 147t-119 47q-96 0 -146.5 -62.5t-50.5 -203.5v-645h-172v717q0 100 -41 147t-118 47q-96 0 -146.5 -62.5t-50.5 -203.5v-645 h-172v819q0 57 -3 113.5t-5 111.5z" />
<glyph unicode="n" horiz-adv-x="987" d="M117 1044h166l6 -155h4q41 90 106.5 130t157.5 40q137 0 221 -81t84 -253v-725h-172v674q0 125 -44 181t-128 56q-102 0 -161.5 -70.5t-59.5 -211.5v-629h-172v819q0 57 -3 113.5t-5 111.5z" />
<glyph unicode="o" horiz-adv-x="987" d="M74 522q0 123 26.5 222.5t79.5 169t131 107.5t183 38q104 0 182 -38t131 -107.5t79.5 -169t26.5 -222.5t-26.5 -222t-79.5 -169t-131 -107.5t-182 -37.5t-182.5 37.5t-131.5 107.5t-79.5 169t-26.5 222zM254 522q0 -199 58.5 -298t181.5 -99t181 99.5t58 297.5 q0 199 -58.5 298.5t-180.5 99.5q-123 0 -181.5 -99.5t-58.5 -298.5z" />
<glyph unicode="p" horiz-adv-x="985" d="M100 1044h166l6 -153h4q16 31 40 60.5t58 54t77 39t100 14.5q162 0 261 -133t99 -404q0 -270 -99 -403t-261 -133q-90 0 -151.5 36.5t-114.5 120.5h-4v-585h-172v1294q0 47 -3.5 96t-5.5 96zM281 522q0 -199 55 -298t174 -99t174 99.5t55 297.5q0 199 -55 298.5 t-174 99.5t-174 -99.5t-55 -298.5z" />
<glyph unicode="q" horiz-adv-x="985" d="M74 522q0 270 99 403.5t261 133.5q57 0 100.5 -14.5t77 -39t57 -54t40.5 -60.5h4l6 153h166q-2 -47 -5 -96t-3 -96v-1294h-172v585h-5q-53 -84 -114.5 -120.5t-151.5 -36.5q-162 0 -261 133t-99 403zM246 522q0 -199 55 -298t174 -99t174.5 99.5t55.5 297.5 q0 199 -55.5 298.5t-174.5 99.5t-174 -99.5t-55 -298.5z" />
<glyph unicode="r" horiz-adv-x="606" d="M117 1044h166l6 -163h4q41 96 110.5 137t186.5 41v-170q-31 6 -66 6q-100 0 -163.5 -85t-63.5 -257v-553h-172v819q0 57 -3 113.5t-5 111.5z" />
<glyph unicode="s" horiz-adv-x="757" d="M70 47l10 156q59 -35 119.5 -56.5t126.5 -21.5q98 0 148 44t50 103q0 53 -30.5 92t-102.5 72l-115 51q-113 51 -158.5 109.5t-45.5 159.5q0 63 23.5 119.5t67.5 96.5t106.5 63.5t138.5 23.5q66 0 121 -10.5t100 -26.5l-8 -148q-41 18 -93.5 32t-111.5 14q-86 0 -129 -41 t-43 -103q0 -63 45 -102t131 -74l61 -25q96 -39 151.5 -103t55.5 -163q0 -68 -18.5 -127t-59.5 -102t-104.5 -68.5t-153.5 -25.5q-82 0 -153.5 16t-128.5 45z" />
<glyph unicode="t" horiz-adv-x="606" d="M33 905v139h166v213l172 52v-265h215v-139h-215v-616q0 -90 24.5 -127t83.5 -37q33 0 57.5 8t49.5 19v-140q-31 -10 -71 -18t-75 -8q-119 0 -180 54t-61 193v672h-166z" />
<glyph unicode="u" horiz-adv-x="987" d="M125 319v725h172v-673q0 -125 44 -181.5t128 -56.5q102 0 161.5 70.5t59.5 212.5v628h172v-819q0 -57 3 -113.5t5 -111.5h-165l-7 156h-4q-41 -90 -106.5 -130t-157.5 -40q-137 0 -221 80.5t-84 252.5z" />
<glyph unicode="v" horiz-adv-x="872" d="M18 1044h189l229 -872h4l234 872h180l-313 -1044h-205z" />
<glyph unicode="w" horiz-adv-x="1402" d="M18 1044h181l198 -872h4l199 872h205l207 -872h4l196 872h172l-272 -1044h-197l-219 883h-4l-200 -883h-197z" />
<glyph unicode="x" horiz-adv-x="872" d="M18 0l310 561l-279 483h189l200 -376l201 376h188l-290 -489l317 -555h-197l-231 432l-219 -432h-189z" />
<glyph unicode="y" horiz-adv-x="833" d="M8 1044h180l234 -851h4l217 851h172l-362 -1257q-39 -133 -98.5 -187.5t-157.5 -54.5q-31 0 -63 3t-54 10l8 155q20 -10 43 -15t51 -5q37 0 64.5 24.5t50.5 106.5l41 160z" />
<glyph unicode="z" horiz-adv-x="796" d="M63 0v156l484 741h-467v147h643v-155l-483 -742h493v-147h-670z" />
<glyph unicode="{" horiz-adv-x="569" d="M63 584v94q82 0 120 73.5t38 202.5v346q0 119 60.5 183.5t148.5 64.5h121v-94h-78q-59 0 -81.5 -31.5t-22.5 -117.5v-383q0 -74 -18.5 -127.5t-45 -87t-57.5 -52t-53 -22.5v-4q23 -4 53.5 -22.5t57 -52.5t45 -87t18.5 -127v-383q0 -86 22.5 -118t81.5 -32h78v-94h-121 q-88 0 -148.5 64.5t-60.5 183.5v346q0 129 -38 203t-120 74z" />
<glyph unicode="|" horiz-adv-x="454" d="M150 -512v2048h155v-2048h-155z" />
<glyph unicode="}" horiz-adv-x="569" d="M18 -193h78q59 0 82 32t23 118v383q0 74 18.5 127t45 87t57 52.5t53.5 22.5v4q-23 4 -53.5 22.5t-57 52t-45 87t-18.5 127.5v383q0 86 -22.5 117.5t-82.5 31.5h-78v94h121q88 0 148.5 -64.5t60.5 -183.5v-346q0 -129 38 -202.5t120 -73.5v-94q-82 0 -120 -74t-38 -203 v-346q0 -119 -60.5 -183.5t-148.5 -64.5h-121v94z" />
<glyph unicode="~" horiz-adv-x="1228" d="M141 477q57 100 117.5 143.5t138.5 43.5q29 0 53.5 -4.5t50 -12.5t57.5 -22.5l73 -34.5q88 -43 131 -60.5t72 -17.5q35 0 82 36t98 116l73 -105q-53 -98 -118.5 -142t-137.5 -44q-23 0 -44 3t-47.5 12t-60.5 23.5t-81 37.5l-77 35q-32 15 -56.5 23.5t-44 12.5t-39.5 4 q-37 0 -76 -32.5t-90 -118.5z" />
<glyph d="M14 524l21 101h129q-4 45 -4 90t4 90h-150l21 100h141q20 111 65.5 209t116 172t167 116t218.5 42q68 0 129.5 -12.5t122.5 -40.5l-32 -164q-14 14 -41 25.5t-57.5 19.5t-61.5 12t-49 4q-86 0 -151.5 -30.5t-113 -84t-78 -123t-46.5 -145.5h542l-20 -100h-539 q-10 -90 0 -180h510l-18 -101h-475q16 -74 47.5 -142.5t79 -120.5t113 -84t149.5 -32q113 0 209 52l12 -174q-59 -18 -114.5 -27.5t-117.5 -9.5q-125 0 -222 42t-167.5 114.5t-114.5 171t-65 210.5h-160z" />
<glyph unicode="&#x20ac;" d="M14 524l21 101h129q-4 45 -4 90t4 90h-150l21 100h141q20 111 65.5 209t116 172t167 116t218.5 42q68 0 129.5 -12.5t122.5 -40.5l-32 -164q-14 14 -41 25.5t-57.5 19.5t-61.5 12t-49 4q-86 0 -151.5 -30.5t-113 -84t-78 -123t-46.5 -145.5h542l-20 -100h-539 q-10 -90 0 -180h510l-18 -101h-475q16 -74 47.5 -142.5t79 -120.5t113 -84t149.5 -32q113 0 209 52l12 -174q-59 -18 -114.5 -27.5t-117.5 -9.5q-125 0 -222 42t-167.5 114.5t-114.5 171t-65 210.5h-160z" />
<glyph horiz-adv-x="948" d="M70 0v170l581 1104h-563v156h778v-156l-600 -1118h613v-156h-809zM192 1796h156l127 -187l127 187h156l-205 -297h-156z" />
<glyph unicode="&#x17d;" horiz-adv-x="948" d="M70 0v170l581 1104h-563v156h778v-156l-600 -1118h613v-156h-809zM192 1796h156l127 -187l127 187h156l-205 -297h-156z" />
<glyph horiz-adv-x="796" d="M63 0v156l484 741h-467v147h643v-155l-483 -742h493v-147h-670zM116 1485h156l127 -187l127 187h156l-205 -297h-156z" />
<glyph unicode="&#x17e;" horiz-adv-x="796" d="M63 0v156l484 741h-467v147h643v-155l-483 -742h493v-147h-670zM116 1485h156l127 -187l127 187h156l-205 -297h-156z" />
<glyph unicode="&#xa1;" horiz-adv-x="720" d="M258 -385l29 1049h147l29 -1049h-205zM262 815v229h197v-229h-197z" />
<glyph unicode="&#xa2;" d="M137 512q0 127 32 228.5t92.5 172t147.5 108.5t195 38h6l35 235h90l-37 -243q63 -10 113 -33l-8 -156q-59 35 -127 43l-115 -768q10 -4 19 -4h20q61 0 113.5 16.5t97.5 38.5l8 -157q-39 -16 -100.5 -30.5t-118.5 -14.5h-31q-14 0 -30 4l-39 -252h-90l41 270 q-80 23 -138.5 70t-97.5 112.5t-58.5 147.5t-19.5 174zM317 512q0 -133 43 -221t115 -127l113 747q-121 -6 -196 -100t-75 -299z" />
<glyph unicode="&#xa3;" d="M106 0v147h144v541h-144v131h144v174q0 121 33.5 207t91 140.5t133.5 79t160 24.5q63 0 127.5 -14.5t111.5 -32.5l-18 -156q-18 12 -43 23.5t-53.5 20.5t-58 14.5t-54.5 5.5q-111 0 -184.5 -71t-73.5 -226v-189h328v-131h-328v-541h473v-147h-789z" />
<glyph unicode="&#xa4;" d="M10 317l107 107q-47 59 -74 133t-27 158q0 82 27 155.5t74 135.5l-107 106l82 82l109 -107q59 49 133 76t158 27t158.5 -26.5t133.5 -76.5l107 107l82 -82l-107 -106q47 -59 74 -133t27 -158t-27 -158t-76 -133l109 -107l-82 -81l-107 106q-59 -49 -134 -75.5t-158 -26.5 q-84 0 -158 26.5t-133 75.5l-109 -106zM156 715q0 -76 25.5 -139.5t69.5 -108.5t105.5 -70.5t135.5 -25.5t135 25.5t105 70.5t69.5 108.5t25.5 139.5t-25.5 139.5t-69.5 108.5t-105.5 70.5t-134.5 25.5q-74 0 -135.5 -25.5t-105.5 -70.5t-69.5 -108.5t-25.5 -139.5z" />
<glyph unicode="&#xa5;" d="M12 1430h189l291 -627l290 627h189l-344 -730h260v-131h-307v-147h307v-131h-307v-291h-172v291h-312v131h312v147h-312v131h264z" />
<glyph unicode="&#xa6;" horiz-adv-x="454" d="M150 358h155v-716h-155v716zM150 666v716h155v-716h-155z" />
<glyph unicode="&#xa7;" d="M129 -193l21 160q121 -90 274 -90q100 0 158.5 48t58.5 130q0 43 -21.5 80t-76.5 72l-240 143q-96 57 -133 122t-37 132q0 35 7 70t27.5 70.5t56.5 73.5t93 81q-72 37 -104.5 97.5t-32.5 138.5q0 61 22.5 116.5t65.5 98.5t108.5 68.5t151.5 25.5q31 0 69 -5t75 -13.5 t68.5 -19.5t47.5 -22l-20 -157q-121 70 -225 69q-86 0 -138.5 -43t-52.5 -114q0 -39 21.5 -75t81.5 -73l184 -117q55 -35 96 -65.5t66.5 -63t39 -71.5t13.5 -90q0 -45 -20.5 -89t-48 -81t-57.5 -66t-50 -43q27 -16 51.5 -37.5t43 -50.5t29.5 -66.5t11 -89.5 q0 -78 -28.5 -139t-80 -104t-119 -65.5t-145.5 -22.5q-82 0 -163.5 21t-147.5 56zM305 635q0 -33 11.5 -62.5t41 -60.5t84 -65.5t140.5 -79.5q51 49 71.5 98t20.5 102q0 33 -12.5 65t-42 62.5t-80 64.5t-125.5 75q-59 -49 -84 -97.5t-25 -101.5z" />
<glyph unicode="&#xa8;" horiz-adv-x="417" d="M-37 1260v204h164v-204h-164zM291 1260v204h164v-204h-164z" />
<glyph unicode="&#xa9;" horiz-adv-x="1638" d="M90 715q0 152 57.5 285t155.5 231t231.5 155.5t284.5 57.5q152 0 285 -57.5t231.5 -155.5t155.5 -231.5t57 -284.5q0 -152 -57 -285t-155.5 -231.5t-231.5 -155.5t-285 -57t-285 57t-231 155.5t-155.5 231.5t-57.5 285zM229 715q0 -129 45 -238.5t125 -189.5t187.5 -125 t232.5 -45t232.5 45t187.5 125t125 189.5t45 238.5t-45 238.5t-125 189.5t-187.5 125t-232.5 45t-232.5 -45t-187.5 -125t-125 -189.5t-45 -238.5zM410 715q0 98 29.5 182t85 144.5t135 95t180.5 34.5q139 0 240.5 -76.5t123.5 -228.5h-123q-16 88 -79.5 142.5t-159.5 54.5 q-72 0 -126 -25.5t-91 -71.5t-56.5 -109.5t-19.5 -139.5q0 -72 20.5 -134.5t58.5 -110.5t93 -75.5t125 -27.5q96 0 157.5 57t77.5 149h123q-29 -147 -126 -231t-232 -84q-98 0 -179 35t-138.5 96.5t-88 144.5t-30.5 179z" />
<glyph unicode="&#xaa;" horiz-adv-x="606" d="M45 981q0 104 72.5 160.5t247.5 56.5h75v41q0 63 -37.5 87t-103.5 24q-57 0 -104.5 -17.5t-75.5 -46.5l-13 107q86 51 201 51q248 0 248 -213v-326q0 -29 2 -53.5t4 -40.5h-110l-7 88h-4q-20 -43 -68 -69.5t-120 -26.5q-92 0 -149.5 44t-57.5 134zM168 997 q0 -47 27.5 -76.5t87.5 -29.5q72 0 114.5 46t42.5 101v74q-14 4 -34 4h-44q-194 0 -194 -119z" />
<glyph unicode="&#xab;" horiz-adv-x="1024" d="M164 532l229 422h148l-205 -422l205 -421h-148zM483 532l230 422h147l-205 -422l205 -421h-147z" />
<glyph unicode="&#xac;" horiz-adv-x="1228" d="M96 655v140h1037v-562h-140v422h-897z" />
<glyph unicode="&#xad;" horiz-adv-x="606" d="M82 502v147h442v-147h-442z" />
<glyph unicode="&#x2010;" horiz-adv-x="606" d="M82 502v147h442v-147h-442z" />
<glyph unicode="&#xae;" horiz-adv-x="1638" d="M90 715q0 152 57.5 285t155.5 231t231.5 155.5t284.5 57.5q152 0 285 -57.5t231.5 -155.5t155.5 -231.5t57 -284.5q0 -152 -57 -285t-155.5 -231.5t-231.5 -155.5t-285 -57t-285 57t-231 155.5t-155.5 231.5t-57.5 285zM229 715q0 -129 45 -238.5t125 -189.5t187.5 -125 t232.5 -45t232.5 45t187.5 125t125 189.5t45 238.5t-45 238.5t-125 189.5t-187.5 125t-232.5 45t-232.5 -45t-187.5 -125t-125 -189.5t-45 -238.5zM541 289v854h327q293 0 293 -240q0 -104 -60.5 -169.5t-160.5 -65.5l244 -379h-148l-235 379h-121v-379h-139zM680 776h166 q39 0 71.5 5t56 19.5t36 41t12.5 67.5q0 72 -48 98.5t-128 26.5h-166v-258z" />
<glyph unicode="&#xaf;" horiz-adv-x="417" d="M-61 1278v123h540v-123h-540z" />
<glyph unicode="&#xb0;" horiz-adv-x="819" d="M86 1120q0 68 25.5 126.5t69.5 102.5t102.5 69.5t126.5 25.5t126 -25.5t102 -69.5t69.5 -102.5t25.5 -126.5t-25.5 -126t-69.5 -102t-102.5 -69.5t-125.5 -25.5q-68 0 -126.5 25.5t-102.5 69.5t-69.5 102t-25.5 126zM201 1120q0 -43 16 -81t45 -66.5t67 -45t81 -16.5 t80.5 16.5t66.5 45t45 66.5t16 81t-16 81t-45 66.5t-66.5 45t-80.5 16.5t-81 -16.5t-67 -45t-45 -66.5t-16 -81z" />
<glyph unicode="&#xb1;" horiz-adv-x="1228" d="M96 0v139h1037v-139h-1037zM96 553v139h449v344h139v-344h449v-139h-449v-346h-139v346h-449z" />
<glyph unicode="&#xb2;" horiz-adv-x="589" d="M41 578v94q178 188 265 317t87 211q0 53 -33.5 95t-103.5 42q-41 0 -89 -18.5t-89 -46.5l-15 117q59 29 118 42t102 13q121 0 185 -63.5t64 -153.5q0 -53 -25.5 -120t-71.5 -138.5t-109.5 -144t-139.5 -140.5h363v-106h-508z" />
<glyph unicode="&#xb3;" horiz-adv-x="589" d="M41 600l10 117q47 -23 92 -36t86 -13q74 0 131.5 46t57.5 122q0 59 -47 97t-133 38h-86v98h47q106 0 159.5 40t53.5 99q0 61 -45 99.5t-115 38.5q-37 0 -83 -13.5t-87 -36.5l-12 113q47 18 100 26.5t113 8.5q55 0 102 -13.5t82 -40t55.5 -66.5t20.5 -93 q0 -88 -49.5 -137.5t-122.5 -63.5v-4q86 -10 132 -69.5t46 -141.5q0 -51 -18.5 -95t-56.5 -78t-94 -53.5t-132 -19.5q-57 0 -112.5 8.5t-94.5 22.5z" />
<glyph unicode="&#xb4;" horiz-adv-x="417" d="M106 1188l138 297h202l-208 -297h-132z" />
<glyph unicode="&#xb5;" horiz-adv-x="987" d="M125 -442v1486h172v-673q0 -125 44 -181.5t128 -56.5q102 0 161.5 70.5t59.5 212.5v628h172v-819q0 -57 3 -113.5t5 -111.5h-165l-7 156h-4q-41 -90 -105.5 -130t-146.5 -40q-49 0 -86 17t-55 46h-4v-491h-172z" />
<glyph unicode="&#xb6;" horiz-adv-x="1136" d="M72 1036q0 199 126 296.5t341 97.5h440v-1686h-131v1571h-219v-1571h-131v911q-92 0 -171 30t-135.5 81t-88 120.5t-31.5 149.5z" />
<glyph unicode="&#xb7;" horiz-adv-x="491" d="M115 610q0 53 39 92t92 39t92 -38.5t39 -92.5q0 -53 -39 -92t-92 -39t-92 39t-39 92z" />
<glyph unicode="&#x22c5;" horiz-adv-x="491" d="M115 610q0 53 39 92t92 39t92 -38.5t39 -92.5q0 -53 -39 -92t-92 -39t-92 39t-39 92z" />
<glyph unicode="&#x2219;" horiz-adv-x="491" d="M115 610q0 53 39 92t92 39t92 -38.5t39 -92.5q0 -53 -39 -92t-92 -39t-92 39t-39 92z" />
<glyph unicode="&#xb8;" horiz-adv-x="417" d="M39 -406l29 72q31 -10 65.5 -18t63.5 -8q53 0 85.5 25.5t32.5 60.5q0 76 -90 75q-53 0 -88 -14l-31 39l117 174h90l-84 -123q27 6 60 6q72 0 123 -38t51 -109q0 -74 -61.5 -126t-182.5 -52q-53 0 -101 12t-79 24z" />
<glyph unicode="&#xb9;" horiz-adv-x="589" d="M80 1268l190 168h127v-858h-139v720l-119 -122z" />
<glyph unicode="&#xba;" horiz-adv-x="643" d="M39 1122q0 147 70.5 234.5t212.5 87.5q141 0 211.5 -87t70.5 -235q0 -147 -70.5 -233t-211.5 -86t-212 86t-71 233zM178 1122q0 -225 144 -225q143 0 143 225q0 227 -143 228q-144 -1 -144 -228z" />
<glyph unicode="&#xbb;" horiz-adv-x="1024" d="M164 111l205 421l-205 422h147l230 -422l-230 -421h-147zM483 111l205 421l-205 422h148l229 -422l-229 -421h-148z" />
<glyph unicode="&#xbc;" horiz-adv-x="1476" d="M80 1268l190 168h127v-858h-139v720l-119 -122zM352 -68l641 1565h131l-641 -1565h-131zM868 184v113l334 561h162v-575h100v-99h-100v-184h-131v184h-365zM979 283h254v452h-4z" />
<glyph unicode="&#xbd;" horiz-adv-x="1476" d="M80 1268l190 168h127v-858h-139v720l-119 -122zM352 -68l641 1565h131l-641 -1565h-131zM928 0v94q178 188 265 317.5t87 211.5q0 53 -34 95t-103 42q-41 0 -89 -18.5t-89 -47.5l-15 117q59 29 117.5 42t101.5 13q121 0 185.5 -63.5t64.5 -153.5q0 -53 -25.5 -119.5 t-71.5 -138.5t-109.5 -144.5t-139.5 -140.5h363v-106h-508z" />
<glyph unicode="&#xbe;" horiz-adv-x="1476" d="M41 600l10 117q47 -23 92 -36t86 -13q74 0 131.5 46t57.5 122q0 59 -47 97t-133 38h-86v98h47q106 0 159.5 40t53.5 99q0 61 -45 99.5t-115 38.5q-37 0 -83 -13.5t-87 -36.5l-12 113q47 18 100 26.5t113 8.5q55 0 102 -13.5t82 -40t55.5 -66.5t20.5 -93 q0 -88 -49.5 -137.5t-122.5 -63.5v-4q86 -10 132 -69.5t46 -141.5q0 -51 -18.5 -95t-56.5 -78t-94 -53.5t-132 -19.5q-57 0 -112.5 8.5t-94.5 22.5zM352 -68l641 1565h131l-641 -1565h-131zM868 184v113l334 561h162v-575h100v-99h-100v-184h-131v184h-365zM979 283h254v452 h-4z" />
<glyph unicode="&#xbf;" horiz-adv-x="909" d="M123 -47q0 72 25.5 152.5t78.5 158.5l119 174q20 27 32.5 49.5t20 47t9.5 57.5t2 82h155q0 -70 -4 -119t-18.5 -92t-42 -87t-74.5 -102q-68 -84 -95.5 -147.5t-27.5 -138.5q0 -104 61.5 -168t155.5 -64q53 0 119 22.5t115 47.5l8 -168q-59 -27 -130 -42t-134 -15 q-172 0 -273.5 90t-101.5 262zM389 815v229h197v-229h-197z" />
<glyph unicode="&#xc0;" horiz-adv-x="1175" d="M16 0l480 1430h196l467 -1430h-188l-115 373h-545l-114 -373h-181zM360 528h449l-219 713h-4zM350 1796h203l137 -297h-131z" />
<glyph unicode="&#xc1;" horiz-adv-x="1175" d="M16 0l480 1430h196l467 -1430h-188l-115 373h-545l-114 -373h-181zM360 528h449l-219 713h-4zM485 1499l138 297h202l-208 -297h-132z" />
<glyph unicode="&#xc2;" horiz-adv-x="1175" d="M16 0l480 1430h196l467 -1430h-188l-115 373h-545l-114 -373h-181zM360 528h449l-219 713h-4zM305 1499l205 297h156l205 -297h-156l-127 186l-127 -186h-156z" />
<glyph unicode="&#xc3;" horiz-adv-x="1175" d="M16 0l480 1430h196l467 -1430h-188l-115 373h-545l-114 -373h-181zM360 528h449l-219 713h-4zM289 1536q10 104 59 161.5t135 57.5q29 0 62 -10.5t94 -40.5q31 -16 46.5 -21.5t25.5 -5.5q51 0 69 88h107q-16 -102 -58 -160.5t-116 -58.5q-25 0 -54.5 7t-86.5 36 q-47 23 -63.5 29t-33.5 6q-29 0 -52.5 -19.5t-27.5 -68.5h-106z" />
<glyph unicode="&#xc4;" horiz-adv-x="1175" d="M16 0l480 1430h196l467 -1430h-188l-115 373h-545l-114 -373h-181zM360 528h449l-219 713h-4zM342 1571v204h164v-204h-164zM670 1571v204h164v-204h-164z" />
<glyph unicode="&#xc5;" horiz-adv-x="1175" d="M16 0l480 1430h196l467 -1430h-188l-115 373h-545l-114 -373h-181zM360 528h449l-219 713h-4zM469 1690q0 -49 35 -84t84 -35t84 35t35 84t-35 84t-84 35t-84 -35t-35 -84zM375 1690q0 43 16.5 82t46 68.5t68.5 46t82 16.5t82 -16.5t68.5 -46t46 -68.5t16.5 -82 t-16.5 -82t-46 -68.5t-68.5 -46t-82 -16.5t-82 16.5t-68.5 46t-46 68.5t-16.5 82z" />
<glyph unicode="&#xc6;" horiz-adv-x="1593" d="M16 0l713 1430h748v-156h-453v-455h428v-155h-428v-508h471v-156h-651v373h-445l-182 -373h-201zM467 528h377v770h-4z" />
<glyph unicode="&#xc7;" horiz-adv-x="1099" d="M98 717q0 168 46 302t130 228t201 145.5t256 51.5q78 0 149.5 -13.5t120.5 -37.5v-176q-113 72 -268 71q-88 0 -169 -34.5t-142.5 -102.5t-98 -167t-36.5 -230q0 -139 27.5 -252t85 -193t143.5 -124t202 -44q70 0 135.5 17.5t120.5 50.5v-180q-66 -20 -131 -31.5 t-129 -11.5h-28q-12 0 -25 2l-76 -111q27 6 60 6q72 0 123 -38t51 -109q0 -74 -61.5 -126t-182.5 -52q-53 0 -101 12t-79 24l29 72q31 -10 65.5 -18t63.5 -8q53 0 85.5 25.5t32.5 60.5q0 76 -90 75q-53 0 -88 -14l-31 39l115 172q-133 25 -228 91.5t-156.5 163.5t-91.5 216 t-30 248z" />
<glyph unicode="&#xc8;" horiz-adv-x="948" d="M158 0v1430h665v-156h-485v-455h463v-155h-463v-508h512v-156h-692zM237 1796h203l137 -297h-131z" />
<glyph unicode="&#xc9;" horiz-adv-x="948" d="M158 0v1430h665v-156h-485v-455h463v-155h-463v-508h512v-156h-692zM372 1499l138 297h202l-208 -297h-132z" />
<glyph unicode="&#xca;" horiz-adv-x="948" d="M158 0v1430h665v-156h-485v-455h463v-155h-463v-508h512v-156h-692zM192 1499l205 297h156l205 -297h-156l-127 186l-127 -186h-156z" />
<glyph unicode="&#xcb;" horiz-adv-x="948" d="M158 0v1430h665v-156h-485v-455h463v-155h-463v-508h512v-156h-692zM229 1571v204h164v-204h-164zM557 1571v204h164v-204h-164z" />
<glyph unicode="&#xcc;" horiz-adv-x="495" d="M158 0v1430h180v-1430h-180zM10 1796h203l137 -297h-131z" />
<glyph unicode="&#xcd;" horiz-adv-x="495" d="M158 0v1430h180v-1430h-180zM145 1499l138 297h202l-208 -297h-132z" />
<glyph unicode="&#xce;" horiz-adv-x="495" d="M158 0v1430h180v-1430h-180zM-35 1499l205 297h156l205 -297h-156l-127 186l-127 -186h-156z" />
<glyph unicode="&#xcf;" horiz-adv-x="495" d="M158 0v1430h180v-1430h-180zM2 1571v204h164v-204h-164zM330 1571v204h164v-204h-164z" />
<glyph unicode="&#xd0;" horiz-adv-x="1175" d="M-20 692v131h157v607h312q143 0 231 -30t149 -73q47 -33 94.5 -84t85.5 -123.5t61.5 -167t23.5 -215.5q0 -156 -39 -290t-126 -233t-227.5 -156.5t-341.5 -57.5h-223v692h-157zM317 156h109q238 0 358.5 152.5t120.5 428.5q0 113 -25.5 210t-82 170t-148.5 115t-223 42 h-109v-451h330v-131h-330v-536z" />
<glyph unicode="&#xd1;" horiz-adv-x="1253" d="M158 0v1430h223l539 -1180h4v1180h172v-1430h-224l-538 1171h-4v-1171h-172zM328 1536q10 104 59 161.5t135 57.5q29 0 62 -10.5t94 -40.5q31 -16 46.5 -21.5t25.5 -5.5q51 0 69 88h107q-16 -102 -58 -160.5t-116 -58.5q-25 0 -54.5 7t-86.5 36q-47 23 -63.5 29t-33.5 6 q-29 0 -52.5 -19.5t-27.5 -68.5h-106z" />
<glyph unicode="&#xd2;" horiz-adv-x="1253" d="M98 700q0 371 141.5 557.5t395.5 186.5q119 0 215 -49t163.5 -142.5t104.5 -225.5t37 -298q0 -371 -141.5 -557t-395.5 -186q-119 0 -215 49t-163.5 142t-104.5 225t-37 298zM287 700q0 -109 17.5 -211t57 -181t103 -127t153.5 -48q70 0 133.5 31t111.5 101.5t76 184 t28 279.5q0 109 -17.5 211t-57.5 181t-103.5 127t-153.5 48q-72 0 -134.5 -30.5t-110.5 -101t-75.5 -184.5t-27.5 -280zM389 1796h203l137 -297h-131z" />
<glyph unicode="&#xd3;" horiz-adv-x="1253" d="M98 700q0 371 141.5 557.5t395.5 186.5q119 0 215 -49t163.5 -142.5t104.5 -225.5t37 -298q0 -371 -141.5 -557t-395.5 -186q-119 0 -215 49t-163.5 142t-104.5 225t-37 298zM287 700q0 -109 17.5 -211t57 -181t103 -127t153.5 -48q70 0 133.5 31t111.5 101.5t76 184 t28 279.5q0 109 -17.5 211t-57.5 181t-103.5 127t-153.5 48q-72 0 -134.5 -30.5t-110.5 -101t-75.5 -184.5t-27.5 -280zM524 1499l138 297h202l-208 -297h-132z" />
<glyph unicode="&#xd4;" horiz-adv-x="1253" d="M98 700q0 371 141.5 557.5t395.5 186.5q119 0 215 -49t163.5 -142.5t104.5 -225.5t37 -298q0 -371 -141.5 -557t-395.5 -186q-119 0 -215 49t-163.5 142t-104.5 225t-37 298zM287 700q0 -109 17.5 -211t57 -181t103 -127t153.5 -48q70 0 133.5 31t111.5 101.5t76 184 t28 279.5q0 109 -17.5 211t-57.5 181t-103.5 127t-153.5 48q-72 0 -134.5 -30.5t-110.5 -101t-75.5 -184.5t-27.5 -280zM344 1499l205 297h156l205 -297h-156l-127 186l-127 -186h-156z" />
<glyph unicode="&#xd5;" horiz-adv-x="1253" d="M98 700q0 371 141.5 557.5t395.5 186.5q119 0 215 -49t163.5 -142.5t104.5 -225.5t37 -298q0 -371 -141.5 -557t-395.5 -186q-119 0 -215 49t-163.5 142t-104.5 225t-37 298zM287 700q0 -109 17.5 -211t57 -181t103 -127t153.5 -48q70 0 133.5 31t111.5 101.5t76 184 t28 279.5q0 109 -17.5 211t-57.5 181t-103.5 127t-153.5 48q-72 0 -134.5 -30.5t-110.5 -101t-75.5 -184.5t-27.5 -280zM328 1536q10 104 59 161.5t135 57.5q29 0 62 -10.5t94 -40.5q31 -16 46.5 -21.5t25.5 -5.5q51 0 69 88h107q-16 -102 -58 -160.5t-116 -58.5 q-25 0 -54.5 7t-86.5 36q-47 23 -63.5 29t-33.5 6q-29 0 -52.5 -19.5t-27.5 -68.5h-106z" />
<glyph unicode="&#xd6;" horiz-adv-x="1253" d="M98 700q0 371 141.5 557.5t395.5 186.5q119 0 215 -49t163.5 -142.5t104.5 -225.5t37 -298q0 -371 -141.5 -557t-395.5 -186q-119 0 -215 49t-163.5 142t-104.5 225t-37 298zM287 700q0 -109 17.5 -211t57 -181t103 -127t153.5 -48q70 0 133.5 31t111.5 101.5t76 184 t28 279.5q0 109 -17.5 211t-57.5 181t-103.5 127t-153.5 48q-72 0 -134.5 -30.5t-110.5 -101t-75.5 -184.5t-27.5 -280zM381 1571v204h164v-204h-164zM709 1571v204h164v-204h-164z" />
<glyph unicode="&#xd7;" horiz-adv-x="1228" d="M143 150l369 368l-369 369l101 102l370 -368l371 368l100 -102l-368 -369l368 -368l-100 -103l-371 369l-370 -369z" />
<glyph unicode="&#xd8;" horiz-adv-x="1253" d="M27 25l172 217q-100 182 -101 458q0 371 141.5 557.5t395.5 186.5q115 0 208 -46t163 -134l153 194l68 -53l-172 -217q100 -182 100 -459q0 -371 -141.5 -557t-395.5 -186q-117 0 -210 46t-160 134l-154 -195zM287 700q0 -78 9 -154.5t30 -142.5l565 715 q-39 82 -101.5 130t-154.5 48q-72 0 -134.5 -30.5t-110.5 -101t-75.5 -184.5t-27.5 -280zM362 311q39 -82 101.5 -130t154.5 -48q70 0 133.5 31t111.5 101.5t76 184t28 279.5q0 78 -9.5 155t-29.5 142z" />
<glyph unicode="&#xd9;" horiz-adv-x="1212" d="M158 526v904h180v-930q0 -168 69.5 -267.5t198.5 -99.5t198.5 99.5t69.5 267.5v930h181v-904q0 -53 -2 -95t-8.5 -80t-17.5 -72.5t-30 -71.5q-23 -45 -57.5 -85t-82.5 -71t-110.5 -48t-140.5 -17t-140.5 17t-110.5 48t-82.5 71t-57.5 85q-18 37 -29.5 71.5t-17.5 72.5 t-8 80t-2 95zM368 1796h203l137 -297h-131z" />
<glyph unicode="&#xda;" horiz-adv-x="1212" d="M158 526v904h180v-930q0 -168 69.5 -267.5t198.5 -99.5t198.5 99.5t69.5 267.5v930h181v-904q0 -53 -2 -95t-8.5 -80t-17.5 -72.5t-30 -71.5q-23 -45 -57.5 -85t-82.5 -71t-110.5 -48t-140.5 -17t-140.5 17t-110.5 48t-82.5 71t-57.5 85q-18 37 -29.5 71.5t-17.5 72.5 t-8 80t-2 95zM503 1499l138 297h202l-208 -297h-132z" />
<glyph unicode="&#xdb;" horiz-adv-x="1212" d="M158 526v904h180v-930q0 -168 69.5 -267.5t198.5 -99.5t198.5 99.5t69.5 267.5v930h181v-904q0 -53 -2 -95t-8.5 -80t-17.5 -72.5t-30 -71.5q-23 -45 -57.5 -85t-82.5 -71t-110.5 -48t-140.5 -17t-140.5 17t-110.5 48t-82.5 71t-57.5 85q-18 37 -29.5 71.5t-17.5 72.5 t-8 80t-2 95zM323 1499l205 297h156l205 -297h-156l-127 186l-127 -186h-156z" />
<glyph unicode="&#xdc;" horiz-adv-x="1212" d="M158 526v904h180v-930q0 -168 69.5 -267.5t198.5 -99.5t198.5 99.5t69.5 267.5v930h181v-904q0 -53 -2 -95t-8.5 -80t-17.5 -72.5t-30 -71.5q-23 -45 -57.5 -85t-82.5 -71t-110.5 -48t-140.5 -17t-140.5 17t-110.5 48t-82.5 71t-57.5 85q-18 37 -29.5 71.5t-17.5 72.5 t-8 80t-2 95zM360 1571v204h164v-204h-164zM688 1571v204h164v-204h-164z" />
<glyph unicode="&#xdd;" horiz-adv-x="1060" d="M12 1430h205l315 -633l318 633h199l-428 -830v-600h-181v600zM428 1499l138 297h202l-208 -297h-132z" />
<glyph unicode="&#xde;" horiz-adv-x="985" d="M158 0v1430h180v-246h164q109 0 180.5 -29t128.5 -82q53 -53 83 -127t30 -168q0 -211 -118 -318.5t-347 -107.5h-121v-352h-180zM338 500h98q164 0 231.5 70.5t67.5 191.5q0 147 -77.5 210.5t-217.5 63.5h-102v-536z" />
<glyph unicode="&#xdf;" horiz-adv-x="985" d="M117 0v1116q0 98 20.5 179t65.5 140.5t116.5 92.5t174.5 33q94 0 162.5 -31t112.5 -84t65.5 -126t21.5 -159q0 -63 -10 -113.5t-38 -90t-74 -72.5t-116 -62v-4q70 -8 125.5 -29.5t92 -66.5t56 -119t19.5 -186q0 -84 -20.5 -162t-65.5 -138.5t-114.5 -96t-169.5 -35.5 q-37 0 -73 4t-65 10l9 150q25 -10 55.5 -17.5t77.5 -7.5q43 0 78.5 12.5t61.5 43t40 80.5t14 128q0 115 -17 182.5t-54 102.5t-96.5 46t-141.5 15v148q70 0 118 13t78.5 48t44 94.5t13.5 149.5q0 111 -44 172t-146 61q-68 0 -109 -27.5t-62.5 -72.5t-27.5 -102.5t-6 -116.5 v-1102h-172z" />
<glyph unicode="&#xe0;" horiz-adv-x="948" d="M74 287q0 76 26.5 140.5t85 111.5t151.5 73.5t228 26.5h101v47q0 59 -7.5 96t-31.5 72q-27 35 -74 50.5t-100 15.5q-80 0 -152 -30t-117 -79l-18 162q66 41 141.5 63.5t153.5 22.5q57 0 103 -11.5t81 -26.5t58.5 -31.5t35.5 -28.5q35 -35 62.5 -90.5t27.5 -165.5v-545 q0 -47 2.5 -89t6.5 -71h-156l-10 141h-4q-35 -59 -104.5 -107t-188.5 -48q-129 0 -215 74.5t-86 226.5zM246 299q0 -84 43 -133t133 -49q55 0 100 21.5t77 57t49.5 84t17.5 101.5v131q-23 4 -56 4h-65q-152 0 -225.5 -63.5t-73.5 -153.5zM237 1485h203l137 -297h-131z" />
<glyph unicode="&#xe1;" horiz-adv-x="948" d="M74 287q0 76 26.5 140.5t85 111.5t151.5 73.5t228 26.5h101v47q0 59 -7.5 96t-31.5 72q-27 35 -74 50.5t-100 15.5q-80 0 -152 -30t-117 -79l-18 162q66 41 141.5 63.5t153.5 22.5q57 0 103 -11.5t81 -26.5t58.5 -31.5t35.5 -28.5q35 -35 62.5 -90.5t27.5 -165.5v-545 q0 -47 2.5 -89t6.5 -71h-156l-10 141h-4q-35 -59 -104.5 -107t-188.5 -48q-129 0 -215 74.5t-86 226.5zM246 299q0 -84 43 -133t133 -49q55 0 100 21.5t77 57t49.5 84t17.5 101.5v131q-23 4 -56 4h-65q-152 0 -225.5 -63.5t-73.5 -153.5zM372 1188l138 297h202l-208 -297 h-132z" />
<glyph unicode="&#xe2;" horiz-adv-x="948" d="M74 287q0 76 26.5 140.5t85 111.5t151.5 73.5t228 26.5h101v47q0 59 -7.5 96t-31.5 72q-27 35 -74 50.5t-100 15.5q-80 0 -152 -30t-117 -79l-18 162q66 41 141.5 63.5t153.5 22.5q57 0 103 -11.5t81 -26.5t58.5 -31.5t35.5 -28.5q35 -35 62.5 -90.5t27.5 -165.5v-545 q0 -47 2.5 -89t6.5 -71h-156l-10 141h-4q-35 -59 -104.5 -107t-188.5 -48q-129 0 -215 74.5t-86 226.5zM246 299q0 -84 43 -133t133 -49q55 0 100 21.5t77 57t49.5 84t17.5 101.5v131q-23 4 -56 4h-65q-152 0 -225.5 -63.5t-73.5 -153.5zM192 1188l205 297h156l205 -297 h-156l-127 186l-127 -186h-156z" />
<glyph unicode="&#xe3;" horiz-adv-x="948" d="M74 287q0 76 26.5 140.5t85 111.5t151.5 73.5t228 26.5h101v47q0 59 -7.5 96t-31.5 72q-27 35 -74 50.5t-100 15.5q-80 0 -152 -30t-117 -79l-18 162q66 41 141.5 63.5t153.5 22.5q57 0 103 -11.5t81 -26.5t58.5 -31.5t35.5 -28.5q35 -35 62.5 -90.5t27.5 -165.5v-545 q0 -47 2.5 -89t6.5 -71h-156l-10 141h-4q-35 -59 -104.5 -107t-188.5 -48q-129 0 -215 74.5t-86 226.5zM246 299q0 -84 43 -133t133 -49q55 0 100 21.5t77 57t49.5 84t17.5 101.5v131q-23 4 -56 4h-65q-152 0 -225.5 -63.5t-73.5 -153.5zM176 1225q10 104 59 161.5t135 57.5 q29 0 62 -10.5t94 -40.5q31 -16 46.5 -21.5t25.5 -5.5q51 0 69 88h107q-16 -102 -58 -160.5t-116 -58.5q-25 0 -54.5 7t-86.5 36q-47 23 -63.5 29t-33.5 6q-29 0 -52.5 -19.5t-27.5 -68.5h-106z" />
<glyph unicode="&#xe4;" horiz-adv-x="948" d="M74 287q0 76 26.5 140.5t85 111.5t151.5 73.5t228 26.5h101v47q0 59 -7.5 96t-31.5 72q-27 35 -74 50.5t-100 15.5q-80 0 -152 -30t-117 -79l-18 162q66 41 141.5 63.5t153.5 22.5q57 0 103 -11.5t81 -26.5t58.5 -31.5t35.5 -28.5q35 -35 62.5 -90.5t27.5 -165.5v-545 q0 -47 2.5 -89t6.5 -71h-156l-10 141h-4q-35 -59 -104.5 -107t-188.5 -48q-129 0 -215 74.5t-86 226.5zM246 299q0 -84 43 -133t133 -49q55 0 100 21.5t77 57t49.5 84t17.5 101.5v131q-23 4 -56 4h-65q-152 0 -225.5 -63.5t-73.5 -153.5zM229 1260v204h164v-204h-164z M557 1260v204h164v-204h-164z" />
<glyph unicode="&#xe5;" horiz-adv-x="948" d="M74 287q0 76 26.5 140.5t85 111.5t151.5 73.5t228 26.5h101v47q0 59 -7.5 96t-31.5 72q-27 35 -74 50.5t-100 15.5q-80 0 -152 -30t-117 -79l-18 162q66 41 141.5 63.5t153.5 22.5q57 0 103 -11.5t81 -26.5t58.5 -31.5t35.5 -28.5q35 -35 62.5 -90.5t27.5 -165.5v-545 q0 -47 2.5 -89t6.5 -71h-156l-10 141h-4q-35 -59 -104.5 -107t-188.5 -48q-129 0 -215 74.5t-86 226.5zM246 299q0 -84 43 -133t133 -49q55 0 100 21.5t77 57t49.5 84t17.5 101.5v131q-23 4 -56 4h-65q-152 0 -225.5 -63.5t-73.5 -153.5zM381 1368q0 -49 35 -84t84 -35 t84 35t35 84t-35 84t-84 35t-84 -35t-35 -84zM287 1368q0 43 16.5 82t46 68.5t68.5 46t82 16.5t82 -16.5t68.5 -46t46 -68.5t16.5 -82t-16.5 -82t-46 -68.5t-68.5 -46t-82 -16.5t-82 16.5t-68.5 46t-46 68.5t-16.5 82z" />
<glyph unicode="&#xe6;" horiz-adv-x="1478" d="M74 287q0 80 26.5 145.5t85 113.5t151.5 74.5t228 26.5h103v33q0 121 -60.5 180.5t-161.5 59.5q-76 0 -146.5 -30t-115.5 -79l-18 162q66 41 141.5 63.5t153.5 22.5q94 0 174 -39t123 -137q41 78 107.5 127t181.5 49q178 0 272 -132t94 -364v-47h-590q0 -215 71 -307 t214 -92q66 0 130.5 26.5t109.5 59.5l8 -156q-61 -29 -138 -45t-155 -16q-129 0 -216 54t-124 159q-57 -113 -143 -163t-205 -50q-129 0 -215 74.5t-86 226.5zM246 287q0 -74 43 -122t133 -48q113 0 179.5 86t66.5 246v67h-66q-195 0 -275.5 -61.5t-80.5 -167.5zM823 647 h418q0 129 -50 205t-155 76q-84 0 -146.5 -65.5t-66.5 -215.5z" />
<glyph unicode="&#xe7;" horiz-adv-x="796" d="M74 512q0 127 31.5 228.5t91 172t144.5 108.5t191 38q59 0 117 -10.5t99 -30.5l-9 -156q-45 25 -92 37t-106 12q-127 0 -207 -94t-80 -305q0 -182 78 -280.5t205 -98.5q61 0 113 16.5t98 38.5l8 -157q-39 -16 -98.5 -30.5t-116.5 -14.5l-74 -109q27 6 59 6q72 0 123 -38 t51 -109q0 -74 -61 -126t-182 -52q-53 0 -101.5 12t-79.5 24l29 72q31 -10 66 -18t63 -8q53 0 86 25.5t33 60.5q0 76 -90 75q-53 0 -88 -14l-31 39l113 168q-96 12 -169 57t-120 113.5t-70.5 158t-23.5 189.5z" />
<glyph unicode="&#xe8;" horiz-adv-x="909" d="M74 522q0 123 26.5 222.5t77.5 169t126 107.5t173 38q178 0 272.5 -132t94.5 -364v-92h-590q0 -182 70.5 -268t214.5 -86q66 0 130 26.5t109 59.5l8 -156q-61 -29 -138 -45t-154 -16q-104 0 -182.5 37.5t-131.5 107.5t-79.5 169t-26.5 222zM254 602h418q0 326 -205 326 q-41 0 -79 -16.5t-67.5 -55.5t-47 -100.5t-19.5 -153.5zM217 1485h203l137 -297h-131z" />
<glyph unicode="&#xe9;" horiz-adv-x="909" d="M74 522q0 123 26.5 222.5t77.5 169t126 107.5t173 38q178 0 272.5 -132t94.5 -364v-92h-590q0 -182 70.5 -268t214.5 -86q66 0 130 26.5t109 59.5l8 -156q-61 -29 -138 -45t-154 -16q-104 0 -182.5 37.5t-131.5 107.5t-79.5 169t-26.5 222zM254 602h418q0 326 -205 326 q-41 0 -79 -16.5t-67.5 -55.5t-47 -100.5t-19.5 -153.5zM352 1188l138 297h202l-208 -297h-132z" />
<glyph unicode="&#xea;" horiz-adv-x="909" d="M74 522q0 123 26.5 222.5t77.5 169t126 107.5t173 38q178 0 272.5 -132t94.5 -364v-92h-590q0 -182 70.5 -268t214.5 -86q66 0 130 26.5t109 59.5l8 -156q-61 -29 -138 -45t-154 -16q-104 0 -182.5 37.5t-131.5 107.5t-79.5 169t-26.5 222zM254 602h418q0 326 -205 326 q-41 0 -79 -16.5t-67.5 -55.5t-47 -100.5t-19.5 -153.5zM172 1188l205 297h156l205 -297h-156l-127 186l-127 -186h-156z" />
<glyph unicode="&#xeb;" horiz-adv-x="909" d="M74 522q0 123 26.5 222.5t77.5 169t126 107.5t173 38q178 0 272.5 -132t94.5 -364v-92h-590q0 -182 70.5 -268t214.5 -86q66 0 130 26.5t109 59.5l8 -156q-61 -29 -138 -45t-154 -16q-104 0 -182.5 37.5t-131.5 107.5t-79.5 169t-26.5 222zM254 602h418q0 326 -205 326 q-41 0 -79 -16.5t-67.5 -55.5t-47 -100.5t-19.5 -153.5zM209 1260v204h164v-204h-164zM537 1260v204h164v-204h-164z" />
<glyph unicode="&#xec;" horiz-adv-x="454" d="M141 1044h172v-1044h-172v1044zM-11 1485h203l137 -297h-131z" />
<glyph unicode="&#xed;" horiz-adv-x="454" d="M141 1044h172v-1044h-172v1044zM124 1188l138 297h202l-208 -297h-132z" />
<glyph unicode="&#xee;" horiz-adv-x="454" d="M141 1044h172v-1044h-172v1044zM-56 1188l205 297h156l205 -297h-156l-127 186l-127 -186h-156z" />
<glyph unicode="&#xef;" horiz-adv-x="454" d="M141 1044h172v-1044h-172v1044zM-19 1260v204h164v-204h-164zM309 1260v204h164v-204h-164z" />
<glyph unicode="&#xf0;" horiz-adv-x="987" d="M74 522q0 123 26.5 222.5t79.5 169t131 107.5t183 38q45 0 78.5 -9.5t59 -22.5t43.5 -30l32 -30l4 4q-41 127 -115 225t-160 152l-160 -97l-67 56l160 96q-39 25 -85 45t-91 35l61 78q63 -12 120.5 -36t110.5 -52l146 88l67 -56l-141 -86q166 -119 261 -315.5t95 -480.5 q0 -324 -101 -480.5t-318 -156.5q-104 0 -182.5 37.5t-131.5 107.5t-79.5 169t-26.5 222zM254 522q0 -199 58.5 -298t181.5 -99t181 99.5t58 297.5q0 199 -58.5 298.5t-180.5 99.5q-123 0 -181.5 -99.5t-58.5 -298.5z" />
<glyph unicode="&#xf1;" horiz-adv-x="987" d="M117 1044h166l6 -155h4q41 90 106.5 130t157.5 40q137 0 221 -81t84 -253v-725h-172v674q0 125 -44 181t-128 56q-102 0 -161.5 -70.5t-59.5 -211.5v-629h-172v819q0 57 -3 113.5t-5 111.5zM195 1225q10 104 59 161.5t135 57.5q29 0 62 -10.5t94 -40.5q31 -16 46.5 -21.5 t25.5 -5.5q51 0 69 88h107q-16 -102 -58 -160.5t-116 -58.5q-25 0 -54.5 7t-86.5 36q-47 23 -63.5 29t-33.5 6q-29 0 -52.5 -19.5t-27.5 -68.5h-106z" />
<glyph unicode="&#xf2;" horiz-adv-x="987" d="M74 522q0 123 26.5 222.5t79.5 169t131 107.5t183 38q104 0 182 -38t131 -107.5t79.5 -169t26.5 -222.5t-26.5 -222t-79.5 -169t-131 -107.5t-182 -37.5t-182.5 37.5t-131.5 107.5t-79.5 169t-26.5 222zM254 522q0 -199 58.5 -298t181.5 -99t181 99.5t58 297.5 q0 199 -58.5 298.5t-180.5 99.5q-123 0 -181.5 -99.5t-58.5 -298.5zM256 1485h203l137 -297h-131z" />
<glyph unicode="&#xf3;" horiz-adv-x="987" d="M74 522q0 123 26.5 222.5t79.5 169t131 107.5t183 38q104 0 182 -38t131 -107.5t79.5 -169t26.5 -222.5t-26.5 -222t-79.5 -169t-131 -107.5t-182 -37.5t-182.5 37.5t-131.5 107.5t-79.5 169t-26.5 222zM254 522q0 -199 58.5 -298t181.5 -99t181 99.5t58 297.5 q0 199 -58.5 298.5t-180.5 99.5q-123 0 -181.5 -99.5t-58.5 -298.5zM391 1188l138 297h202l-208 -297h-132z" />
<glyph unicode="&#xf4;" horiz-adv-x="987" d="M74 522q0 123 26.5 222.5t79.5 169t131 107.5t183 38q104 0 182 -38t131 -107.5t79.5 -169t26.5 -222.5t-26.5 -222t-79.5 -169t-131 -107.5t-182 -37.5t-182.5 37.5t-131.5 107.5t-79.5 169t-26.5 222zM254 522q0 -199 58.5 -298t181.5 -99t181 99.5t58 297.5 q0 199 -58.5 298.5t-180.5 99.5q-123 0 -181.5 -99.5t-58.5 -298.5zM211 1188l205 297h156l205 -297h-156l-127 186l-127 -186h-156z" />
<glyph unicode="&#xf5;" horiz-adv-x="987" d="M74 522q0 123 26.5 222.5t79.5 169t131 107.5t183 38q104 0 182 -38t131 -107.5t79.5 -169t26.5 -222.5t-26.5 -222t-79.5 -169t-131 -107.5t-182 -37.5t-182.5 37.5t-131.5 107.5t-79.5 169t-26.5 222zM254 522q0 -199 58.5 -298t181.5 -99t181 99.5t58 297.5 q0 199 -58.5 298.5t-180.5 99.5q-123 0 -181.5 -99.5t-58.5 -298.5zM195 1225q10 104 59 161.5t135 57.5q29 0 62 -10.5t94 -40.5q31 -16 46.5 -21.5t25.5 -5.5q51 0 69 88h107q-16 -102 -58 -160.5t-116 -58.5q-25 0 -54.5 7t-86.5 36q-47 23 -63.5 29t-33.5 6 q-29 0 -52.5 -19.5t-27.5 -68.5h-106z" />
<glyph unicode="&#xf6;" horiz-adv-x="987" d="M74 522q0 123 26.5 222.5t79.5 169t131 107.5t183 38q104 0 182 -38t131 -107.5t79.5 -169t26.5 -222.5t-26.5 -222t-79.5 -169t-131 -107.5t-182 -37.5t-182.5 37.5t-131.5 107.5t-79.5 169t-26.5 222zM254 522q0 -199 58.5 -298t181.5 -99t181 99.5t58 297.5 q0 199 -58.5 298.5t-180.5 99.5q-123 0 -181.5 -99.5t-58.5 -298.5zM248 1260v204h164v-204h-164zM576 1260v204h164v-204h-164z" />
<glyph unicode="&#xf7;" horiz-adv-x="1228" d="M96 449v139h1037v-139h-1037zM483 117q0 53 39 92t92 39t92 -39t39 -92t-38.5 -92t-92.5 -39q-53 0 -92 39t-39 92zM483 920q0 53 39 92t92 39t92 -39t39 -92t-38.5 -92.5t-92.5 -39.5q-53 0 -92 39.5t-39 92.5z" />
<glyph unicode="&#xf8;" horiz-adv-x="987" d="M47 20l113 144q-43 66 -64.5 157t-21.5 201q0 123 26.5 222.5t79.5 169t131 107.5t183 38q92 0 162.5 -30t121.5 -83l101 125l61 -47l-115 -141q45 -66 66.5 -158t21.5 -203q0 -123 -26.5 -222t-79.5 -169t-131 -107.5t-182 -37.5q-182 0 -285 114l-100 -127zM254 522 q0 -127 25 -209l397 504q-61 102 -182 103q-123 0 -181.5 -99.5t-58.5 -298.5zM311 229q61 -104 183 -104q123 0 181 99.5t58 297.5q0 125 -24 211z" />
<glyph unicode="&#xf9;" horiz-adv-x="987" d="M125 319v725h172v-673q0 -125 44 -181.5t128 -56.5q102 0 161.5 70.5t59.5 212.5v628h172v-819q0 -57 3 -113.5t5 -111.5h-165l-7 156h-4q-41 -90 -106.5 -130t-157.5 -40q-137 0 -221 80.5t-84 252.5zM256 1485h203l137 -297h-131z" />
<glyph unicode="&#xfa;" horiz-adv-x="987" d="M125 319v725h172v-673q0 -125 44 -181.5t128 -56.5q102 0 161.5 70.5t59.5 212.5v628h172v-819q0 -57 3 -113.5t5 -111.5h-165l-7 156h-4q-41 -90 -106.5 -130t-157.5 -40q-137 0 -221 80.5t-84 252.5zM391 1188l138 297h202l-208 -297h-132z" />
<glyph unicode="&#xfb;" horiz-adv-x="987" d="M125 319v725h172v-673q0 -125 44 -181.5t128 -56.5q102 0 161.5 70.5t59.5 212.5v628h172v-819q0 -57 3 -113.5t5 -111.5h-165l-7 156h-4q-41 -90 -106.5 -130t-157.5 -40q-137 0 -221 80.5t-84 252.5zM211 1188l205 297h156l205 -297h-156l-127 186l-127 -186h-156z" />
<glyph unicode="&#xfc;" horiz-adv-x="987" d="M125 319v725h172v-673q0 -125 44 -181.5t128 -56.5q102 0 161.5 70.5t59.5 212.5v628h172v-819q0 -57 3 -113.5t5 -111.5h-165l-7 156h-4q-41 -90 -106.5 -130t-157.5 -40q-137 0 -221 80.5t-84 252.5zM248 1260v204h164v-204h-164zM576 1260v204h164v-204h-164z" />
<glyph unicode="&#xfd;" horiz-adv-x="833" d="M8 1044h180l234 -851h4l217 851h172l-362 -1257q-39 -133 -98.5 -187.5t-157.5 -54.5q-31 0 -63 3t-54 10l8 155q20 -10 43 -15t51 -5q37 0 64.5 24.5t50.5 106.5l41 160zM315 1188l138 297h202l-208 -297h-132z" />
<glyph unicode="&#xfe;" horiz-adv-x="985" d="M109 -442v1978h172v-637h4q14 27 35.5 55.5t54.5 52t76 38t100 14.5q162 0 261 -133t99 -404q0 -270 -99 -403t-261 -133q-90 0 -151.5 36.5t-114.5 120.5h-4v-585h-172zM281 522q0 -199 55 -298t174 -99t174 99.5t55 297.5q0 199 -55 298.5t-174 99.5t-174 -99.5 t-55 -298.5z" />
<glyph unicode="&#xff;" horiz-adv-x="833" d="M8 1044h180l234 -851h4l217 851h172l-362 -1257q-39 -133 -98.5 -187.5t-157.5 -54.5q-31 0 -63 3t-54 10l8 155q20 -10 43 -15t51 -5q37 0 64.5 24.5t50.5 106.5l41 160zM172 1260v204h164v-204h-164zM500 1260v204h164v-204h-164z" />
<glyph unicode="&#x152;" horiz-adv-x="1593" d="M98 700q0 373 144.5 558.5t423.5 185.5q41 0 112 -6q35 -4 71 -6t71 -2h557v-156h-453v-455h426v-155h-426v-508h471v-156h-575h-74q-37 0 -82 -4q-41 -2 -86 -6t-82 -4q-111 0 -202 49t-157.5 142t-102.5 225t-36 298zM287 700q0 -559 372 -559q47 0 92.5 2t92.5 13 v1118q-43 12 -93.5 17t-91.5 5q-80 0 -148.5 -30.5t-117.5 -101t-77.5 -184.5t-28.5 -280z" />
<glyph unicode="&#x153;" horiz-adv-x="1593" d="M74 522q0 246 107.5 391.5t322.5 145.5q131 0 205.5 -53.5t126.5 -163.5q51 111 124.5 164t194.5 53q182 0 277.5 -132t95.5 -364v-92h-610q2 -174 71.5 -264t212.5 -90q80 0 147.5 26.5t112.5 59.5l8 -156q-61 -29 -138 -45t-154 -16q-121 0 -207 54t-135 171 q-49 -117 -134.5 -171t-197.5 -54q-215 0 -322.5 145t-107.5 391zM254 522q0 -199 59.5 -298t190.5 -99t190.5 99.5t59.5 297.5q0 199 -59.5 298.5t-190.5 99.5t-190.5 -99.5t-59.5 -298.5zM918 602h438q0 164 -52.5 245t-162.5 81q-47 0 -87 -16.5t-71 -55.5t-48 -100.5 t-17 -153.5z" />
<glyph unicode="&#x178;" horiz-adv-x="1060" d="M12 1430h205l315 -633l318 633h199l-428 -830v-600h-181v600zM285 1571v204h164v-204h-164zM613 1571v204h164v-204h-164z" />
<glyph unicode="&#x2c6;" horiz-adv-x="417" d="M-74 1188l205 297h156l205 -297h-156l-127 186l-127 -186h-156z" />
<glyph unicode="&#x2dc;" horiz-adv-x="417" d="M-90 1225q10 104 59 161.5t135 57.5q29 0 62 -10.5t94 -40.5q31 -16 46.5 -21.5t25.5 -5.5q51 0 69 88h107q-16 -102 -58 -160.5t-116 -58.5q-25 0 -54.5 7t-86.5 36q-47 23 -63.5 29t-33.5 6q-29 0 -52.5 -19.5t-27.5 -68.5h-106z" />
<glyph unicode="&#x2000;" horiz-adv-x="950" />
<glyph unicode="&#x2001;" horiz-adv-x="1902" />
<glyph unicode="&#x2002;" horiz-adv-x="950" />
<glyph unicode="&#x2003;" horiz-adv-x="1902" />
<glyph unicode="&#x2004;" horiz-adv-x="632" />
<glyph unicode="&#x2005;" horiz-adv-x="475" />
<glyph unicode="&#x2006;" horiz-adv-x="315" />
<glyph unicode="&#x2007;" horiz-adv-x="315" />
<glyph unicode="&#x2008;" horiz-adv-x="237" />
<glyph unicode="&#x2009;" horiz-adv-x="378" />
<glyph unicode="&#x200a;" horiz-adv-x="104" />
<glyph unicode="&#x2011;" horiz-adv-x="606" d="M82 502v147h442v-147h-442z" />
<glyph unicode="&#x2012;" horiz-adv-x="606" d="M82 502v147h442v-147h-442z" />
<glyph unicode="&#x2013;" horiz-adv-x="1024" d="M0 506v139h1024v-139h-1024z" />
<glyph unicode="&#x2014;" horiz-adv-x="2048" d="M0 506v139h2048v-139h-2048z" />
<glyph unicode="&#x2018;" horiz-adv-x="491" d="M100 1061l136 475h155l-102 -475h-189z" />
<glyph unicode="&#x2019;" horiz-adv-x="491" d="M100 1061l103 475h188l-135 -475h-156z" />
<glyph unicode="&#x201a;" horiz-adv-x="491" d="M100 -260l103 475h188l-135 -475h-156z" />
<glyph unicode="&#x201c;" horiz-adv-x="1024" d="M213 1061l135 475h156l-103 -475h-188zM520 1061l135 475h156l-102 -475h-189z" />
<glyph unicode="&#x201d;" horiz-adv-x="1024" d="M213 1061l102 475h189l-135 -475h-156zM520 1061l103 475h188l-135 -475h-156z" />
<glyph unicode="&#x201e;" horiz-adv-x="1024" d="M213 -260l102 475h189l-135 -475h-156zM520 -260l103 475h188l-135 -475h-156z" />
<glyph unicode="&#x2022;" horiz-adv-x="1024" d="M154 715q0 74 27.5 139.5t76.5 114.5t114.5 76.5t139.5 27.5t139.5 -27.5t114.5 -76.5t76.5 -115t27.5 -139q0 -74 -27.5 -139.5t-76.5 -114.5t-114.5 -77t-139.5 -28t-139.5 28t-114.5 77t-76.5 114.5t-27.5 139.5z" />
<glyph unicode="&#x2026;" horiz-adv-x="2048" d="M244 0v229h196v-229h-196zM926 0v229h196v-229h-196zM1608 0v229h196v-229h-196z" />
<glyph unicode="&#x202f;" horiz-adv-x="378" />
<glyph unicode="&#x2039;" horiz-adv-x="569" d="M96 532l230 422h147l-205 -422l205 -421h-147z" />
<glyph unicode="&#x203a;" horiz-adv-x="569" d="M96 111l205 421l-205 422h148l229 -422l-229 -421h-148z" />
<glyph unicode="&#x205f;" horiz-adv-x="475" />
<glyph unicode="&#x2122;" horiz-adv-x="2048" d="M111 1335v95h663v-95h-266v-757h-131v757h-266zM938 578v852h209l250 -656l250 656h208v-852h-131v741h-4l-280 -741h-88l-279 741h-4v-741h-131z" />
<glyph unicode="&#xe000;" horiz-adv-x="1045" d="M0 1045h1045v-1045h-1045v1045z" />
<glyph unicode="&#xfb01;" horiz-adv-x="1024" d="M702 1270v205h189v-205h-189zM710 0v1044h172v-1044h-172zM33 905v139h166v234q0 129 61.5 206t198.5 77q74 0 135 -17v-147q-16 12 -42 18t-56 6q-72 0 -98.5 -40t-26.5 -117v-220h188v-139h-188v-905h-172v905h-166z" />
<glyph unicode="&#xfb02;" horiz-adv-x="1024" d="M710 0v1536h172v-1536h-172zM33 905v139h166v234q0 129 61.5 206t198.5 77q74 0 135 -17v-147q-16 12 -42 18t-56 6q-72 0 -98.5 -40t-26.5 -117v-220h188v-139h-188v-905h-172v905h-166z" />
<glyph unicode="&#xfb03;" horiz-adv-x="1593" d="M1272 1270v205h189v-205h-189zM1280 0v1044h172v-1044h-172zM602 905v139h166v234q0 129 61.5 206t198.5 77q74 0 135 -17v-147q-16 12 -42 18t-56 6q-72 0 -98.5 -40t-26.5 -117v-220h188v-139h-188v-905h-172v905h-166zM33 905v139h166v234q0 129 61.5 206t198.5 77 q74 0 135 -17v-147q-16 12 -42 18t-56 6q-72 0 -98.5 -40t-26.5 -117v-220h188v-139h-188v-905h-172v905h-166z" />
<glyph unicode="&#xfb04;" horiz-adv-x="1593" d="M1280 0v1536h172v-1536h-172zM602 905v139h166v234q0 129 61.5 206t198.5 77q74 0 135 -17v-147q-16 12 -42 18t-56 6q-72 0 -98.5 -40t-26.5 -117v-220h188v-139h-188v-905h-172v905h-166zM33 905v139h166v234q0 129 61.5 206t198.5 77q74 0 135 -17v-147q-16 12 -42 18 t-56 6q-72 0 -98.5 -40t-26.5 -117v-220h188v-139h-188v-905h-172v905h-166z" />
<glyph horiz-adv-x="417" d="M90 1368q0 -49 35 -84t84 -35t84 35t35 84t-35 84t-84 35t-84 -35t-35 -84zM-4 1368q0 43 16.5 82t46 68.5t68.5 46t82 16.5t82 -16.5t68.5 -46t46 -68.5t16.5 -82t-16.5 -82t-46 -68.5t-68.5 -46t-82 -16.5t-82 16.5t-68.5 46t-46 68.5t-16.5 82z" />
<glyph horiz-adv-x="417" d="M-74 1485h156l127 -187l127 187h156l-205 -297h-156z" />
<glyph horiz-adv-x="454" d="M141 1044h172v-1044h-172v1044z" />
</font>
</defs>
</svg>
